<?xml version="1.0" encoding="UTF-8"?>
<svg width="11px" height="18px" viewBox="0 0 11 18" version="1.1" xmlns="http://www.w3.org/2000/svg" xmlns:xlink="http://www.w3.org/1999/xlink">
    <!-- Generator: Sketch 50 (54983) - http://www.bohemiancoding.com/sketch -->
    <title>@Icons/Chevron right Copy</title>
    <desc>Created with Sketch.</desc>
    <defs></defs>
    <g id="Vacation-Day" stroke="none" stroke-width="1" fill="none" fill-rule="evenodd">
        <g id="Employee-Dashboard---Day-Request" transform="translate(-964.000000, -175.000000)" fill="#BBBDBF">
            <g id="@Icons/Chevron-right" transform="translate(964.000000, 175.000000)">
                <path d="M10.3482755,9.27172042 C10.3482755,8.89282717 10.192416,8.52507783 9.93636097,8.26876769 L2.67775857,1.01407625 C2.42170357,0.746622186 2.05432032,0.590607316 1.67580425,0.590607316 C1.29728817,0.590607316 0.92990492,0.746622186 0.673849927,1.01407625 L-0.172244831,1.84987019 C-0.428299824,2.10618034 -0.584159385,2.47392967 -0.584159385,2.85282293 C-0.584159385,3.23171618 -0.428299824,3.59946552 -0.172244831,3.86691958 L5.23830849,9.27172042 L-0.172244831,14.6876652 C-0.428299824,14.9439753 -0.584159385,15.3117247 -0.584159385,15.6906179 C-0.584159385,16.0695112 -0.428299824,16.4372605 -0.172244831,16.7047146 L0.673849927,17.5405085 C0.92990492,17.7968187 1.29728817,17.9528335 1.67580425,17.9528335 C2.05432032,17.9528335 2.42170357,17.7968187 2.67775857,17.5405085 L9.93636097,10.2858171 C10.192416,10.018363 10.3482755,9.65061368 10.3482755,9.27172042 L10.3482755,9.27172042 Z" id="Icons/Chevron-right"></path>
            </g>
        </g>
    </g>
</svg>