<?xml version="1.0" encoding="UTF-8"?>
<svg width="19px" height="20px" viewBox="0 0 19 20" version="1.1" xmlns="http://www.w3.org/2000/svg" xmlns:xlink="http://www.w3.org/1999/xlink">
    <!-- Generator: Sketch 50 (54983) - http://www.bohemiancoding.com/sketch -->
    <title>@Icons/Bell</title>
    <desc>Created with Sketch.</desc>
    <defs></defs>
    <g id="Vacation-Day" stroke="none" stroke-width="1" fill="none" fill-rule="evenodd">
        <g id="Employee-Dashboard" transform="translate(-905.000000, -24.000000)" fill="#BBBDBF">
            <g id="@Icons/Bell" transform="translate(906.000000, 24.000000)">
                <path d="M17.8125221,15.6906179 C17.8125221,16.4706923 17.1668182,17.1170396 16.3875204,17.1170396 L11.4000144,17.1170396 C11.4000144,18.6883322 10.1197395,19.9698829 8.55001104,19.9698829 C6.98028261,19.9698829 5.70000764,18.6883322 5.70000764,17.1170396 L0.712501699,17.1170396 C-0.0667961053,17.1170396 -0.7125,16.4706923 -0.7125,15.6906179 C2.19316753,13.2278118 3.5625051,9.45002313 3.5625051,5.70566626 C3.5625051,3.19828442 5.14336636,1.77186276 7.57032237,1.48212086 C7.51465825,1.35953775 7.48125977,1.21466679 7.48125977,1.06979584 C7.48125977,0.479168123 7.95997128,-2.04051013e-05 8.55001104,-2.04051013e-05 C9.14005081,-2.04051013e-05 9.61876232,0.479168123 9.61876232,1.06979584 C9.61876232,1.21466679 9.58536384,1.35953775 9.52969971,1.48212086 C11.9566557,1.77186276 13.537517,3.19828442 13.537517,5.70566626 C13.537517,9.45002313 14.9068546,13.2278118 17.8125221,15.6906179 Z M8.72813625,18.9000667 C8.72813625,18.7997714 8.65020647,18.721764 8.55001104,18.721764 C7.67051781,18.721764 6.94688413,17.9974092 6.94688413,17.1170396 C6.94688413,17.0167443 6.86895435,16.9387369 6.76875892,16.9387369 C6.66856349,16.9387369 6.59063371,17.0167443 6.59063371,17.1170396 C6.59063371,18.1979998 7.47012694,19.0783694 8.55001104,19.0783694 C8.65020647,19.0783694 8.72813625,19.0003619 8.72813625,18.9000667 Z" id="Icons/Bell"></path>
            </g>
        </g>
    </g>
</svg>