<?xml version="1.0" encoding="UTF-8"?>
<svg width="16px" height="16px" viewBox="0 0 16 16" version="1.1" xmlns="http://www.w3.org/2000/svg" xmlns:xlink="http://www.w3.org/1999/xlink">
    <!-- Generator: Sketch 50 (54983) - http://www.bohemiancoding.com/sketch -->
    <title>@Icons/Plus</title>
    <desc>Created with Sketch.</desc>
    <defs></defs>
    <g id="Vacation-Day" stroke="none" stroke-width="1" fill="none" fill-rule="evenodd">
        <g id="Employee-Dashboard" transform="translate(-960.000000, -26.000000)" fill="#BBBDBF">
            <g id="@Icons/Plus" transform="translate(960.000000, 26.000000)">
                <path d="M15.8773895,6.77548421 C15.8773895,6.18485649 15.398678,5.70566796 14.8086382,5.70566796 L10.1773827,5.70566796 L10.1773827,1.06979754 C10.1773827,0.479169824 9.69867119,-1.87046762e-05 9.10863143,-1.87046762e-05 L6.97112888,-1.87046762e-05 C6.38108911,-1.87046762e-05 5.9023776,0.479169824 5.9023776,1.06979754 L5.9023776,5.70566796 L1.27112208,5.70566796 C0.681082318,5.70566796 0.202370809,6.18485649 0.202370809,6.77548421 L0.202370809,8.91511671 C0.202370809,9.50574443 0.681082318,9.98493296 1.27112208,9.98493296 L5.9023776,9.98493296 L5.9023776,14.6208034 C5.9023776,15.2114311 6.38108911,15.6906196 6.97112888,15.6906196 L9.10863143,15.6906196 C9.69867119,15.6906196 10.1773827,15.2114311 10.1773827,14.6208034 L10.1773827,9.98493296 L14.8086382,9.98493296 C15.398678,9.98493296 15.8773895,9.50574443 15.8773895,8.91511671 L15.8773895,6.77548421 Z" id="Icons/Plus"></path>
            </g>
        </g>
    </g>
</svg>